<svg xmlns="http://www.w3.org/2000/svg" viewBox="0 0 100 100">

  <!-- icon-about -->
  <symbol id="icon-about" viewBox="0 0 30 30">
    <path d="M15 14.375C17.7614 14.375 20 12.1364 20 9.375C20 6.61358 17.7614 4.375 15 4.375C12.2386 4.375 10 6.61358 10 9.375C10 12.1364 12.2386 14.375 15 14.375Z"/>
    <path d="M25 25.625V20.625C25 19.875 24.625 19.125 24 18.625C22.625 17.5 20.875 16.75 19.125 16.25C17.875 15.875 16.5 15.625 15 15.625C13.625 15.625 12.25 15.875 10.875 16.25C9.125 16.75 7.375 17.625 6 18.625C5.375 19.125 5 19.875 5 20.625V25.625H25Z"/>
  </symbol>

  <!-- icon-skills -->
  <symbol id="icon-skills" viewBox="0 0 30 30">
    <path d="M11.9028 23.7813L18.4179 22.6032C18.4263 22.524 18.4305 22.4403 18.4305 22.3569V21.7263L11.5977 22.9581C11.6565 23.2509 11.7609 23.5266 11.9028 23.7813Z"/>
    <path d="M11.5352 22.332L18.4307 21.0873V20.2146L11.5352 21.4551V22.332Z"/>
    <path d="M18.2887 23.2678L12.3076 24.3454C12.5038 24.5626 12.7294 24.7465 12.9841 24.8968V26.2372H16.9852V24.8965C17.5954 24.529 18.0631 23.9527 18.2887 23.2678Z"/>
    <path d="M22.7663 11.3812C22.7663 7.0834 19.283 3.6001 14.9813 3.6001C10.6877 3.6001 7.2002 7.0834 7.2002 11.3812C7.2002 14.4424 8.9669 17.0863 11.5355 18.3601V20.8201L18.4307 19.5757V18.3601C20.9996 17.0863 22.7663 14.4427 22.7663 11.3812Z"/>
  </symbol>

  <!-- icon-projects -->
  <symbol id="icon-projects" viewBox="0 0 30 30">
    <path d="M6.32954 9.54043V20H4.77478C4.34772 20.0003 4 19.6492 4 19.2237V5.7456L5.00115 4.41202C5.17151 4.18566 5.54308 4 5.8265 4H7.88092C8.16459 4 8.63055 4 8.91241 4H10.9668C11.2505 4 11.6218 4.18566 11.7924 4.41202L12.7933 5.7456H24.4975C24.923 5.7456 25.2705 6.09331 25.2705 6.51882V9.54043H15.1231L14.1222 8.20686C13.9516 7.98049 13.5803 7.79509 13.2966 7.79509H11.2422C10.9585 7.79509 10.4944 7.79509 10.2107 7.79509H8.15629C7.87262 7.79509 7.5013 7.98075 7.33069 8.20686L6.32954 9.54043Z"/>
    <path d="M28.4264 12.3964H16.7216L15.7184 11.0659C15.548 10.8398 15.1764 10.6541 14.8944 10.6541H12.8396C12.5558 10.6541 12.0916 10.6541 11.8063 10.6541H9.75295C9.46922 10.6541 9.09782 10.8398 8.92716 11.0659L7.92578 12.3964V25.8809C7.92578 26.3065 8.27358 26.6541 8.69737 26.6541H28.4261C28.8533 26.6541 29.2011 26.3063 29.2011 25.8809V13.1729C29.2014 12.7442 28.8536 12.3964 28.4264 12.3964Z"/>
  </symbol>

  <!-- icon-experience -->
  <symbol id="icon-experience" viewBox="0 0 30 30">
    <path d="M18.3128 18.4374C18.3128 18.6744 18.226 18.8797 18.053 19.0526C17.8798 19.226 17.6746 19.3126 17.4376 19.3126H13.0626C12.8255 19.3126 12.6205 19.226 12.4473 19.0526C12.2741 18.8798 12.1876 18.6745 12.1876 18.4374V16.25H3V22.8126C3 23.4141 3.2141 23.9289 3.64255 24.3573C4.07089 24.7857 4.58596 24.9999 5.18757 24.9999H25.3128C25.9142 24.9999 26.4293 24.7857 26.8576 24.3573C27.2862 23.9289 27.5002 23.4141 27.5002 22.8126V16.25H18.3128V18.4374Z"/>
    <path d="M17.0003 16.25H13.5V18H17.0003V16.25Z"/>
    <path d="M26.8576 8.14259C26.4293 7.71415 25.9142 7.50005 25.3127 7.50005H20.5V5.31243C20.5 4.94782 20.3725 4.638 20.1172 4.38276C19.8622 4.12767 19.5522 4 19.1877 4H11.3126C10.9481 4 10.6382 4.12767 10.383 4.38276C10.1277 4.63785 10.0001 4.94778 10.0001 5.31243V7.50005H5.18757C4.58601 7.50005 4.07094 7.71415 3.64255 8.14259C3.2141 8.57099 3 9.08577 3 9.68737V14.9375H27.5001V9.68737C27.5001 9.08577 27.2862 8.57099 26.8576 8.14259ZM18.7502 7.50005H11.7501V5.74993H18.7502V7.50005Z"/>
  </symbol>

  <!-- icon-education -->
  <symbol id="icon-education" viewBox="0 0 30 30">
    <path d="M29.8181 9.68244L17.197 5.1644C16.5841 4.9452 15.9157 4.9452 15.3028 5.1644L2.71655 9.68244C2.28742 9.83869 2 10.2494 2 10.7137C2 11.178 2.28742 11.591 2.71655 11.7446L5.39611 12.7049C4.86529 13.4103 4.49162 14.2299 4.30009 15.1135C3.78802 15.33 3.42863 15.8389 3.42863 16.4282C3.42863 16.8726 3.64355 17.2537 3.96168 17.5158L2.85316 24.1678C2.78039 24.6027 3.11611 25 3.55765 25H6.15686C6.59826 25 6.93412 24.6036 6.86135 24.1683L5.75283 17.5162C6.07114 17.2542 6.28588 16.8345 6.28588 16.4282C6.28588 15.9688 6.05489 15.5786 5.718 15.317C5.90783 14.5241 6.29302 13.8072 6.83144 13.2174L15.3407 16.2635C15.9537 16.4827 16.622 16.4827 17.235 16.2635L29.856 11.7455C30.2868 11.5888 30.5725 11.178 30.5725 10.7137C30.5725 10.2494 30.2868 9.83869 29.8181 9.68244ZM17.6747 17.6069C17.2551 17.772 16.7729 17.8569 16.2863 17.8569C15.7988 17.8569 15.3179 17.7735 14.8576 17.6089L8.37525 15.2898L7.71451 21.665C7.71451 23.5089 11.5138 25 16.2863 25C20.9784 25 24.858 23.5089 24.858 21.6664L24.1982 15.2867L17.6747 17.6069Z"/>
  </symbol>

  <!-- icon-language -->
  <symbol id="icon-language" viewBox="0 0 30 30">
    <path d="M27.0218 7.81226L26.9737 7.76417C25.7627 6.56502 24.4911 5.79619 23.0921 5.41458L22.9796 5.38523L22.851 5.35213C21.7499 5.08919 20.5701 5.05858 19.1661 5.25782L18.9956 5.28405L18.9063 5.29716C17.9263 5.45205 16.9352 5.69626 15.9758 5.93359C15.6673 6.00978 15.3588 6.08598 15.0509 6.15968C13.8018 6.45697 12.4677 6.73177 11.143 6.73177C9.79648 6.73177 8.5942 6.44573 7.47437 5.85739L7.69796 4.58829C7.70928 4.52333 7.70769 4.45678 7.69329 4.39244C7.67889 4.32809 7.65196 4.26721 7.61403 4.21328C7.5761 4.15934 7.52792 4.1134 7.47223 4.07809C7.41655 4.04277 7.35446 4.01877 7.2895 4.00745C7.22454 3.99613 7.15799 3.99772 7.09365 4.01212C7.0293 4.02652 6.96842 4.05346 6.91449 4.09139C6.80556 4.16799 6.73152 4.28472 6.70866 4.41591L3.00816 25.4098C2.99629 25.4747 2.99738 25.5412 3.01136 25.6057C3.02534 25.6701 3.05194 25.7311 3.08962 25.7852C3.1273 25.8394 3.17532 25.8855 3.2309 25.9209C3.28649 25.9564 3.34855 25.9805 3.4135 25.9919C3.44211 25.9973 3.47118 26.0001 3.50031 26C3.61777 25.9999 3.73142 25.9583 3.82131 25.8827C3.9112 25.8071 3.97158 25.7022 3.99184 25.5865L5.51139 16.9708C6.57813 17.9157 7.69734 18.5397 8.91398 18.8713L9.02577 18.9L9.15568 18.9331C9.80363 19.0857 10.4674 19.1609 11.133 19.1573C11.705 19.1545 12.276 19.1113 12.8418 19.0281L13.0123 19.0025L13.101 18.9893C14.0809 18.8345 15.0721 18.5902 16.0314 18.3529C16.34 18.2767 16.6485 18.2005 16.9564 18.1275C18.2055 17.8302 19.5389 17.5554 20.8643 17.5554C22.2939 17.5554 23.5617 17.8776 24.7396 18.5397L24.8914 18.6252L24.9239 18.4541C25.1575 17.22 25.3911 16.0008 25.6178 14.8317V14.8235C25.8501 13.625 26.0831 12.4415 26.3098 11.306V11.2967C26.5421 10.1312 26.7751 8.9858 27.0018 7.88283L27.0218 7.81226Z"/>
  </symbol>

  <!-- icon-contacts -->
  <symbol id="icon-contacts" viewBox="0 0 30 30">
    <path d="M26.8964 22.1305L26.7769 21.7705C26.494 20.9294 25.5664 20.0522 24.7143 19.8211L21.5607 18.9596C20.7055 18.7269 19.4855 19.0398 18.8598 19.6654L17.7184 20.8068C13.5704 19.686 10.3178 16.4332 9.19842 12.286L10.3398 11.1446C10.9656 10.5189 11.2784 9.30054 11.0457 8.44531L10.1858 5.29009C9.95308 4.43643 9.07427 3.50891 8.23479 3.22905L7.87479 3.10801C7.0337 2.82815 5.83418 3.11118 5.20851 3.73685L3.50118 5.44574C3.19617 5.74914 3.00123 6.61695 3.00123 6.62011C2.94151 12.0407 5.06699 17.2632 8.90131 21.0976C12.7262 24.9225 17.9292 27.0449 23.334 26.9993C23.3623 26.9993 24.2552 26.8075 24.5603 26.504L26.2676 24.7967C26.8932 24.1711 27.1762 22.9716 26.8964 22.1305Z"/>
  </symbol>

  <!-- icon-github -->
  <symbol id="icon-github" viewBox="0 0 30 30">
    <path fill-rule="evenodd" clip-rule="evenodd" d="M15.0001 2.34375C8.01505 2.34375 2.34375 8.01482 2.34375 15.0001C2.34375 21.9853 8.01505 27.6564 15.0001 27.6564C21.9851 27.6564 27.6564 21.9853 27.6564 15.0001C27.6564 8.01482 21.9851 2.34375 15.0001 2.34375ZM15.0001 3.28141C21.4681 3.28141 26.7189 8.5324 26.7189 15.0001C26.7189 21.4677 21.4681 26.7187 15.0001 26.7187C8.532 26.7187 3.28118 21.4677 3.28118 15.0001C3.28118 8.5324 8.532 3.28141 15.0001 3.28141Z"/>
    <path fill-rule="evenodd" clip-rule="evenodd" d="M12.8533 18.7337C12.5364 19.4237 12.2851 20.2112 12.2106 21.0527L12.2087 21.2134C11.3636 21.1905 10.3009 20.9589 9.79467 19.9469C9.5603 19.4772 9.27201 19.1781 8.97154 18.9901C8.47092 18.677 7.92154 18.6648 7.44107 18.7778C6.78997 18.9302 6.28185 19.3127 6.28185 19.3127C6.1206 19.4336 6.0545 19.6445 6.11825 19.8358C6.182 20.0275 6.36154 20.1564 6.5631 20.1564C7.06748 20.1564 7.28966 20.5347 7.50341 20.9552C7.8231 21.5833 8.09357 22.3291 8.59607 22.8316C9.48389 23.7189 11.0369 23.9561 12.1989 23.9791L12.1881 27.1863L13.1256 27.1891L13.1383 23.5094C13.1387 23.3824 13.0877 23.2609 12.9967 23.1724C12.9053 23.0833 12.7825 23.0355 12.6555 23.0392C11.6851 23.0683 10.1003 23.0097 9.25936 22.1688C9.01467 21.9241 8.84732 21.6025 8.69264 21.2772C8.5056 20.8858 8.33826 20.4864 8.12873 20.1564C8.01295 19.9736 7.88498 19.8105 7.7392 19.6731C7.97498 19.6295 8.23607 19.6361 8.47467 19.7852C8.6542 19.8972 8.81592 20.0856 8.95654 20.3659C9.75248 21.9583 11.5394 22.2002 12.6981 22.1448C12.9475 22.1327 13.1434 21.9278 13.1444 21.678L13.1462 21.1159C13.2372 20.1316 13.6103 19.2344 14.0191 18.5125C14.1016 18.3672 14.1002 18.1895 14.0162 18.0451C13.9323 17.9012 13.7781 17.8126 13.6112 17.8126H13.3131C10.9051 17.8126 8.90686 16.2887 8.90686 14.3439V13.7383C8.90686 12.4848 9.51342 11.3476 10.4903 10.494C10.6417 10.3623 10.6923 10.1481 10.6155 9.96247C10.2686 9.12153 10.284 8.2234 10.3431 7.67215C10.8578 7.89996 11.6603 8.34621 12.2162 9.08778C12.3358 9.24762 12.5439 9.31418 12.7337 9.25324C13.4359 9.02918 14.2005 8.90637 15.0006 8.90637C15.8008 8.90637 16.5653 9.02918 17.2675 9.25324C17.4574 9.31418 17.6655 9.24762 17.785 9.08778C18.3409 8.34621 19.1434 7.89996 19.6581 7.67215C19.7172 8.2234 19.7327 9.12153 19.3858 9.96247C19.3089 10.1481 19.3595 10.3623 19.511 10.494C20.4878 11.3476 21.0944 12.4848 21.0944 13.7383V14.3439C21.0944 16.2887 19.0961 17.8126 16.6881 17.8126H16.39C16.2231 17.8126 16.0689 17.9012 15.985 18.0451C15.9011 18.1895 15.8997 18.3672 15.9822 18.5125C16.4519 19.3417 16.8756 20.4034 16.8756 21.5627V27.1877H17.8131V21.5627C17.8131 20.5295 17.5277 19.5611 17.148 18.7337C19.9024 18.5401 22.0319 16.6206 22.0319 14.3439V13.7383C22.0319 12.3212 21.4103 11.0181 20.3669 10.0084C20.8638 8.48543 20.4836 6.92027 20.4836 6.92027C20.4531 6.79605 20.3735 6.68917 20.2628 6.62542C20.1517 6.56167 20.02 6.54574 19.8972 6.58136C19.8972 6.58136 18.3156 7.04543 17.2436 8.2684C16.54 8.07434 15.7853 7.96887 15.0006 7.96887C14.2159 7.96887 13.4612 8.07434 12.7572 8.2684C11.6856 7.04543 10.104 6.58136 10.104 6.58136C9.98123 6.54574 9.84951 6.56167 9.73842 6.62542C9.6278 6.68917 9.54811 6.79605 9.51764 6.92027C9.51764 6.92027 9.13748 8.48543 9.63436 10.0084C8.59092 11.0181 7.96935 12.3212 7.96935 13.7383V14.3439C7.96935 16.6206 10.0989 18.5401 12.8533 18.7337Z"/>
  </symbol>

  <!-- icon-email -->
  <symbol id="icon-email" viewBox="0 0 30 30">
    <path fill-rule="evenodd" clip-rule="evenodd" d="M15 3.28125C8.53239 3.28125 3.28125 8.53239 3.28125 15C3.28125 21.4677 8.53239 26.7188 15 26.7188C21.4677 26.7188 26.7188 21.4677 26.7188 15C26.7188 8.53239 21.4677 3.28125 15 3.28125ZM15 4.21875C20.9506 4.21875 25.7813 9.04952 25.7813 15C25.7813 20.9506 20.9506 25.7813 15 25.7813C9.04952 25.7813 4.21875 20.9506 4.21875 15C4.21875 9.04952 9.04952 4.21875 15 4.21875Z"/>
    <path d="M15.1177 8.00076C10.8199 7.93787 7.37209 11.7858 8.09667 16.189C8.58798 19.1771 11.043 21.5287 14.0418 21.9335C16.0638 22.2065 17.9541 21.6231 19.3851 20.4746L18.6556 19.5627C17.4618 20.5209 15.8912 21.0146 14.1877 20.7846C11.7044 20.4494 9.67003 18.4772 9.26381 16.0066C8.65202 12.2888 11.5017 9.11525 15.0995 9.1679C18.1661 9.21287 20.7509 11.756 20.844 14.8212C20.8461 14.8869 20.844 14.9508 20.844 15.0218C20.8394 16.3074 19.7983 17.3383 18.5097 17.3379C17.8579 17.3375 17.3426 16.8219 17.3426 16.1707V15.879V14.1282V11.5022H16.1755V11.9581C15.7561 11.6741 15.2578 11.5022 14.7165 11.5022C13.2731 11.5022 12.0905 12.6848 12.0905 14.1282V15.879C12.0905 17.3224 13.2731 18.505 14.7165 18.505C15.5031 18.505 16.2036 18.1464 16.6861 17.5932C17.1147 18.1383 17.7679 18.5046 18.5097 18.505C20.4262 18.5057 22.0042 16.9412 22.0112 15.0218C22.0112 14.9447 22.0138 14.8685 22.0112 14.7848C21.8989 11.0875 18.8159 8.055 15.1177 8.00076ZM14.7165 12.6693C15.5292 12.6693 16.1755 13.3156 16.1755 14.1282V15.879C16.1755 16.6916 15.5292 17.3379 14.7165 17.3379C13.9039 17.3379 13.2576 16.6916 13.2576 15.879V14.1282C13.2576 13.3156 13.9039 12.6693 14.7165 12.6693Z"/>
  </symbol>

  <!-- icon-discord -->
  <symbol id="icon-discord" viewBox="0 0 30 30">
    <path fill-rule="evenodd" clip-rule="evenodd" d="M15 3.28125C8.53239 3.28125 3.28125 8.53239 3.28125 15C3.28125 21.4677 8.53239 26.7188 15 26.7188C21.4677 26.7188 26.7188 21.4677 26.7188 15C26.7188 8.53239 21.4677 3.28125 15 3.28125ZM15 4.21875C20.9506 4.21875 25.7813 9.04952 25.7813 15C25.7813 20.9506 20.9506 25.7813 15 25.7813C9.04952 25.7813 4.21875 20.9506 4.21875 15C4.21875 9.04952 9.04952 4.21875 15 4.21875Z"/>
    <path d="M12.111 13.6038C11.0873 13.6038 10.2568 14.53 10.2568 15.6689C10.2568 16.8078 11.0873 17.7341 12.111 17.7341C13.1347 17.7341 13.9651 16.8078 13.9651 15.6718C13.9738 15.0951 13.7575 14.5417 13.374 14.1485C13.0308 13.796 12.581 13.6038 12.111 13.6038ZM12.111 17.1515C11.4074 17.1515 10.8336 16.4874 10.8336 15.6689C10.8336 14.8504 11.4074 14.1863 12.111 14.1863C12.4282 14.1863 12.731 14.3174 12.9645 14.5592C13.2414 14.8417 13.3942 15.2437 13.3884 15.6689C13.3884 16.4845 12.8146 17.1515 12.111 17.1515Z"/>
    <path d="M21.3064 9.26961C21.2718 9.21136 21.2199 9.16766 21.1593 9.13854C20.0059 8.6055 18.789 8.22392 17.5433 8.00546C17.402 7.97925 17.255 8.04915 17.1829 8.17732C17.0675 8.38412 16.9349 8.65501 16.8167 8.91716C15.5998 8.75405 14.38 8.75114 13.1862 8.91716C13.0795 8.68123 12.944 8.41325 12.8114 8.1744C12.7421 8.05207 12.6009 7.98216 12.4567 8.00546C11.211 8.22101 9.9912 8.60258 8.84353 9.13854C8.77721 9.16766 8.72531 9.21427 8.69647 9.26379C6.58857 12.4387 5.73214 15.7768 6.07241 19.4673C6.08106 19.5634 6.12719 19.6508 6.21082 19.7178C7.58341 20.7343 9.03385 21.4771 10.6487 21.9839C10.7871 22.0276 10.9313 21.981 11.0264 21.8587C11.3753 21.3752 11.6839 20.8712 11.9405 20.3557C11.9838 20.2683 11.9895 20.1634 11.9549 20.0731C11.9434 20.0382 11.9232 20.0091 11.903 19.9799C13.9388 20.6062 16.0612 20.6062 18.0854 19.9828C18.0653 20.0091 18.048 20.0411 18.0364 20.0731C18.0018 20.1664 18.0076 20.2683 18.0508 20.3557C18.3132 20.8683 18.6189 21.3722 18.962 21.8529C19.0284 21.9461 19.1322 21.9985 19.2418 21.9985C19.2764 21.9985 19.311 21.9927 19.3427 21.9839C20.9575 21.48 22.4108 20.7373 23.7863 19.7178C23.8642 19.6595 23.9161 19.5692 23.9247 19.4702C24.2765 15.8088 23.3941 12.3746 21.3064 9.26961ZM23.3595 19.31C22.108 20.2246 20.7874 20.9004 19.3311 21.3752C19.0947 21.0314 18.8755 20.6761 18.6823 20.3178C19.086 20.1518 19.4667 19.9625 19.8387 19.7411C19.9396 19.6828 20.003 19.578 20.0088 19.4615C20.0146 19.3449 19.9627 19.2313 19.8704 19.1644C19.781 19.0974 19.6945 19.0275 19.608 18.9575C19.5042 18.8731 19.36 18.8556 19.2475 18.9109C16.5168 20.1838 13.4919 20.1838 10.7294 18.9109C10.6112 18.8585 10.4728 18.876 10.3718 18.9605C10.2882 19.0304 10.2017 19.1003 10.1152 19.1644C10.0229 19.2343 9.97102 19.3449 9.97679 19.4615C9.98255 19.578 10.046 19.6828 10.1498 19.744C10.5391 19.9712 10.9197 20.1605 11.3061 20.3207C11.1129 20.6819 10.8938 21.0373 10.6573 21.3781C9.2011 20.9004 7.88042 20.2217 6.63759 19.31C6.3377 15.8234 7.15375 12.663 9.13766 9.63954C10.1786 9.16184 11.2744 8.81522 12.3904 8.60841C12.5259 8.86182 12.6556 9.13271 12.745 9.34826C12.7969 9.47059 12.9238 9.54341 13.0536 9.52302C14.3339 9.32496 15.6459 9.32496 16.9522 9.52302C17.0819 9.54341 17.2088 9.47059 17.2607 9.34826C17.3645 9.10067 17.4914 8.82978 17.6096 8.60841C18.7285 8.81813 19.8214 9.16475 20.8595 9.63954C22.8549 12.631 23.6738 15.7943 23.3595 19.31Z"/>
    <path d="M17.901 13.6038C16.8773 13.6038 16.0469 14.53 16.0469 15.6689C16.0469 16.8078 16.8773 17.7341 17.901 17.7341C18.942 17.7341 19.7552 16.8282 19.7552 15.6718C19.7638 15.0951 19.5476 14.5417 19.164 14.1485C18.8209 13.796 18.371 13.6038 17.901 13.6038ZM17.901 17.1515C17.1974 17.1515 16.6236 16.4874 16.6236 15.6689C16.6236 14.8504 17.1974 14.1863 17.901 14.1863C18.2182 14.1863 18.521 14.3174 18.7546 14.5592C19.0314 14.8417 19.1842 15.2437 19.1785 15.6689C19.1785 16.4991 18.6162 17.1515 17.901 17.1515Z"/>
  </symbol>

  <!-- icon-telegram -->
  <symbol id="icon-telegram" viewBox="0 0 30 30">
    <path fill-rule="evenodd" clip-rule="evenodd" d="M15 3.28125C8.53239 3.28125 3.28125 8.53239 3.28125 15C3.28125 21.4677 8.53239 26.7188 15 26.7188C21.4677 26.7188 26.7188 21.4677 26.7188 15C26.7188 8.53239 21.4677 3.28125 15 3.28125ZM15 4.21875C20.9506 4.21875 25.7813 9.04952 25.7813 15C25.7813 20.9506 20.9506 25.7813 15 25.7813C9.04952 25.7813 4.21875 20.9506 4.21875 15C4.21875 9.04952 9.04952 4.21875 15 4.21875Z"/>
    <path fill-rule="evenodd" clip-rule="evenodd" d="M16.6575 13.0482C14.6488 15.0568 12.6445 17.0611 11.8726 17.8331C11.5066 18.199 11.5062 18.7926 11.8726 19.1589L15.7395 23.0258C16.0887 23.3751 16.5959 23.5157 17.075 23.3955C17.5542 23.2761 17.9355 22.9136 18.0794 22.441L21.7366 10.4249C21.8893 9.92132 21.7487 9.37498 21.3724 9.00798C20.9954 8.6409 20.4451 8.51485 19.9462 8.6816C16.8954 9.69841 10.5731 11.8058 7.50466 12.8288C7.00296 12.996 6.63716 13.4303 6.55853 13.9536C6.48023 14.4766 6.70146 14.9994 7.1323 15.307L9.9912 17.3492C10.3273 17.5891 10.7814 17.5812 11.1086 17.3283L16.6575 13.0482ZM10.5362 16.5863C9.97866 16.1884 8.7042 15.2779 7.67661 14.544C7.5336 14.4414 7.45963 14.2674 7.48582 14.0927C7.51208 13.9188 7.63383 13.7733 7.80108 13.7179L20.2427 9.57067C20.4092 9.51511 20.5924 9.5571 20.7181 9.67946C20.8437 9.80182 20.8904 9.9844 20.8394 10.1521L17.1825 22.1679C17.1344 22.3253 17.0072 22.446 16.8478 22.4862C16.6881 22.526 16.5187 22.4792 16.4024 22.3629L12.5355 18.496C13.3074 17.724 15.3118 15.7197 17.3204 13.7111C17.6701 13.3614 17.6877 12.8003 17.3615 12.429C17.0352 12.0577 16.4763 12.0039 16.0847 12.3057L10.5362 16.5863Z"/>
  </symbol>

  <!-- icon-check -->
  <symbol id="icon-check" viewBox="0 0 30 30">
    <path d="M7.83323 15.6666C7.61219 15.6666 7.40031 15.5789 7.24406 15.4226L2.24406 10.4224C1.91865 10.097 1.91865 9.56948 2.24406 9.24406C2.56948 8.91865 3.09719 8.91865 3.4224 9.24406L7.83323 13.6549L17.2441 4.24406C17.5695 3.91865 18.0972 3.91865 18.4224 4.24406C18.7478 4.56948 18.7478 5.09719 18.4224 5.4226L8.4224 15.4226C8.26615 15.5789 8.05427 15.6666 7.83323 15.6666Z"/>
  </symbol>

</svg>